<?xml version="1.0" encoding="UTF-8"?>
<svg version="1.1" xmlns="http://www.w3.org/2000/svg" width="120" height="120">
<path d="M0 0 C1.9375 1.875 1.9375 1.875 2.4375 4.9375 C2.2725 5.906875 2.1075 6.87625 1.9375 7.875 C-1.29041555 10.0269437 -2.34650809 10.07586443 -6.0625 9.875 C-6.0625 8.885 -6.0625 7.895 -6.0625 6.875 C-4.7425 6.875 -3.4225 6.875 -2.0625 6.875 C-2.0625 5.555 -2.0625 4.235 -2.0625 2.875 C-8.19636604 2.49945718 -12.66541384 2.79095077 -18.0625 5.875 C-19.26367711 7.91154337 -19.26367711 7.91154337 -20.0625 9.875 C-18.74185547 10.13023438 -18.74185547 10.13023438 -17.39453125 10.390625 C-16.23308594 10.63296875 -15.07164063 10.8753125 -13.875 11.125 C-12.72644531 11.35703125 -11.57789062 11.5890625 -10.39453125 11.828125 C-6.84305722 12.94394568 -4.7930325 14.38615305 -2.0625 16.875 C-1.60359375 16.441875 -1.1446875 16.00875 -0.671875 15.5625 C-0.05828125 15.005625 0.5553125 14.44875 1.1875 13.875 C1.79078125 13.318125 2.3940625 12.76125 3.015625 12.1875 C4.9375 10.875 4.9375 10.875 8.9375 10.875 C11.1875 12.875 11.1875 12.875 12.9375 14.875 C13.659375 14.359375 14.38125 13.84375 15.125 13.3125 C17.9375 11.875 17.9375 11.875 20.6875 12.0625 C22.9375 12.875 22.9375 12.875 23.9375 14.875 C24.5975 14.215 25.2575 13.555 25.9375 12.875 C27.2575 12.875 28.5775 12.875 29.9375 12.875 C29.26652328 17.06860449 27.0816606 20.27834352 24.9375 23.875 C25.69933594 23.20404297 25.69933594 23.20404297 26.4765625 22.51953125 C27.90768071 21.26261282 29.34279641 20.01023568 30.78125 18.76171875 C32.06769182 17.63608216 33.34301804 16.49721787 34.59375 15.33203125 C37.92154756 12.31400208 40.41175853 10.97557203 44.9375 10.875 C45.9275 11.535 46.9175 12.195 47.9375 12.875 C47.37204163 16.83320859 46.12847652 19.5409053 43.9375 22.875 C48.30861376 18.77370808 51.43485832 14.38499913 54.63085938 9.33984375 C57.45776283 5.06261591 57.45776283 5.06261591 60.21484375 3.984375 C60.78332031 3.94828125 61.35179688 3.9121875 61.9375 3.875 C62.63671875 5.609375 62.63671875 5.609375 62.9375 7.875 C61.64453125 9.953125 61.64453125 9.953125 59.75 12.125 C56.38056763 16.18853544 54.11762109 20.0787336 51.9375 24.875 C57.17046668 21.46682286 57.17046668 21.46682286 61 16.625 C62.9375 13.875 62.9375 13.875 66.1875 13 C67.095 12.95875 68.0025 12.9175 68.9375 12.875 C68.36397107 16.74632028 66.45045648 18.95672796 63.9375 21.875 C65.23065061 20.91867001 66.52196853 19.95986149 67.8125 19 C68.53179687 18.46632813 69.25109375 17.93265625 69.9921875 17.3828125 C72.02002632 15.87626838 72.02002632 15.87626838 73.9375 13.875 C75.2575 13.875 76.5775 13.875 77.9375 13.875 C77.01137815 18.16589388 74.96990671 21.63276774 72.75 25.375 C72.37552734 26.03886719 72.00105469 26.70273438 71.61523438 27.38671875 C69.02498491 31.76349779 66.55279359 34.44523892 61.9375 36.875 C59.0625 36.625 59.0625 36.625 56.9375 35.875 C56.6075 34.225 56.2775 32.575 55.9375 30.875 C58.2475 31.205 60.5575 31.535 62.9375 31.875 C64.2575 29.565 65.5775 27.255 66.9375 24.875 C65.885625 25.6484375 65.885625 25.6484375 64.8125 26.4375 C61.25126568 28.21811716 59.76477249 27.65607602 55.9375 26.875 C54.885625 27.060625 53.83375 27.24625 52.75 27.4375 C49.9375 27.875 49.9375 27.875 46.9375 25.875 C45.9475 26.535 44.9575 27.195 43.9375 27.875 C41.875 27.5 41.875 27.5 39.9375 26.875 C37.76299307 26.80563079 37.76299307 26.80563079 35 27.5 C31.9375 27.875 31.9375 27.875 28.9375 25.875 C28.2775 26.535 27.6175 27.195 26.9375 27.875 C23.9375 28.125 23.9375 28.125 20.9375 27.875 C20.2775 27.215 19.6175 26.555 18.9375 25.875 C17.9475 26.535 16.9575 27.195 15.9375 27.875 C34.7475 28.37 34.7475 28.37 53.9375 28.875 C53.9375 30.855 53.9375 32.835 53.9375 34.875 C30.1775 34.875 6.4175 34.875 -18.0625 34.875 C-18.7225 33.555 -19.3825 32.235 -20.0625 30.875 C-21.01125 31.060625 -21.96 31.24625 -22.9375 31.4375 C-26.0625 31.875 -26.0625 31.875 -28.0625 30.875 C-28.3925 32.195 -28.7225 33.515 -29.0625 34.875 C-31.3725 34.875 -33.6825 34.875 -36.0625 34.875 C-36.3925 33.225 -36.7225 31.575 -37.0625 29.875 C-36.0725 29.215 -35.0825 28.555 -34.0625 27.875 C-34.805 27.3490625 -34.805 27.3490625 -35.5625 26.8125 C-37.0625 24.875 -37.0625 24.875 -37.5625 21.375 C-37.0625 17.875 -37.0625 17.875 -34.5625 15.9375 C-33.7375 15.586875 -32.9125 15.23625 -32.0625 14.875 C-30.02030294 16.56679328 -29.14456694 17.51227666 -28.55078125 20.13671875 C-28.46376953 21.33748047 -28.46376953 21.33748047 -28.375 22.5625 C-28.27638672 23.77486328 -28.27638672 23.77486328 -28.17578125 25.01171875 C-28.13839844 25.62660156 -28.10101563 26.24148437 -28.0625 26.875 C-19.07435485 26.55815965 -19.07435485 26.55815965 -11.0625 22.875 C-9.89825671 20.32699557 -9.89825671 20.32699557 -9.0625 17.875 C-9.89394531 17.69324219 -10.72539062 17.51148437 -11.58203125 17.32421875 C-12.66871094 17.07285156 -13.75539063 16.82148437 -14.875 16.5625 C-15.95394531 16.31886719 -17.03289063 16.07523438 -18.14453125 15.82421875 C-21.03738513 14.8831699 -22.29316635 14.3003111 -24.0625 11.875 C-24.625 9 -24.625 9 -24.0625 5.875 C-17.61177629 -0.88290103 -8.89938142 -3.26916052 0 0 Z M38.4296875 17.1875 C37.89601563 17.744375 37.36234375 18.30125 36.8125 18.875 C36.27367188 19.431875 35.73484375 19.98875 35.1796875 20.5625 C34.76976563 20.995625 34.35984375 21.42875 33.9375 21.875 C34.2675 22.865 34.5975 23.855 34.9375 24.875 C36.11012904 23.75621617 37.27545138 22.62976949 38.4375 21.5 C39.0871875 20.87351562 39.736875 20.24703125 40.40625 19.6015625 C42.15867431 18.01024093 42.15867431 18.01024093 41.9375 15.875 C39.85574988 15.65614478 39.85574988 15.65614478 38.4296875 17.1875 Z M3.9375 16.875 C0.91232091 19.93058423 0.91232091 19.93058423 -0.0625 23.875 C2.93074263 22.7774777 3.78360901 22.19817108 5.1875 19.25 C5.435 18.46625 5.6825 17.6825 5.9375 16.875 C5.2775 16.875 4.6175 16.875 3.9375 16.875 Z M14.9375 17.875 C12.34972792 20.93080974 12.34972792 20.93080974 11.9375 24.875 C15.61170866 24.56881595 16.71885513 24.11728216 19.25 21.3125 C19.806875 20.508125 20.36375 19.70375 20.9375 18.875 C17.9675 18.38 17.9675 18.38 14.9375 17.875 Z M2.60546875 25.78125 C0.9375 26.875 0.9375 26.875 -3.0625 26.875 C-4.8125 25.375 -4.8125 25.375 -6.0625 23.875 C-8.3725 25.195 -10.6825 26.515 -13.0625 27.875 C-13.0625 28.205 -13.0625 28.535 -13.0625 28.875 C-4.8125 28.875 3.4375 28.875 11.9375 28.875 C10.6175 28.215 9.2975 27.555 7.9375 26.875 C7.9375 25.225 7.9375 23.575 7.9375 21.875 C5.66182344 21.875 4.19372913 24.31139464 2.60546875 25.78125 Z " fill="#FFAE7A" transform="translate(40.0625,41.125)"/>
<path d="M0 0 C1.9375 1.875 1.9375 1.875 2.4375 4.9375 C2.2725 5.906875 2.1075 6.87625 1.9375 7.875 C-1.29041555 10.0269437 -2.34650809 10.07586443 -6.0625 9.875 C-6.0625 8.885 -6.0625 7.895 -6.0625 6.875 C-4.7425 6.875 -3.4225 6.875 -2.0625 6.875 C-2.0625 5.555 -2.0625 4.235 -2.0625 2.875 C-8.19636604 2.49945718 -12.66541384 2.79095077 -18.0625 5.875 C-19.26367711 7.91154337 -19.26367711 7.91154337 -20.0625 9.875 C-18.74185547 10.13023438 -18.74185547 10.13023438 -17.39453125 10.390625 C-16.23308594 10.63296875 -15.07164063 10.8753125 -13.875 11.125 C-12.72644531 11.35703125 -11.57789062 11.5890625 -10.39453125 11.828125 C-6.84305722 12.94394568 -4.7930325 14.38615305 -2.0625 16.875 C-1.340625 16.05 -0.61875 15.225 0.125 14.375 C2.9375 11.875 2.9375 11.875 5.75 11.5625 C6.471875 11.665625 7.19375 11.76875 7.9375 11.875 C8.5625 14.25 8.5625 14.25 8.9375 16.875 C8.2775 17.535 7.6175 18.195 6.9375 18.875 C6.9375 18.215 6.9375 17.555 6.9375 16.875 C6.174375 17.349375 5.41125 17.82375 4.625 18.3125 C1.9375 19.875 1.9375 19.875 -1.0625 20.875 C-1.0625 22.525 -1.0625 24.175 -1.0625 25.875 C-0.4025 25.875 0.2575 25.875 0.9375 25.875 C0.9375 26.535 0.9375 27.195 0.9375 27.875 C-3.8125 27.125 -3.8125 27.125 -6.0625 24.875 C-10.0225 26.855 -10.0225 26.855 -14.0625 28.875 C18.6075 29.37 18.6075 29.37 51.9375 29.875 C51.9375 31.195 51.9375 32.515 51.9375 33.875 C28.5075 33.875 5.0775 33.875 -19.0625 33.875 C-19.3925 32.885 -19.7225 31.895 -20.0625 30.875 C-21.01125 31.060625 -21.96 31.24625 -22.9375 31.4375 C-26.0625 31.875 -26.0625 31.875 -28.0625 30.875 C-28.3925 32.195 -28.7225 33.515 -29.0625 34.875 C-31.3725 34.875 -33.6825 34.875 -36.0625 34.875 C-36.3925 33.225 -36.7225 31.575 -37.0625 29.875 C-36.0725 29.215 -35.0825 28.555 -34.0625 27.875 C-34.805 27.3490625 -34.805 27.3490625 -35.5625 26.8125 C-37.0625 24.875 -37.0625 24.875 -37.5625 21.375 C-37.0625 17.875 -37.0625 17.875 -34.5625 15.9375 C-33.7375 15.586875 -32.9125 15.23625 -32.0625 14.875 C-30.02030294 16.56679328 -29.14456694 17.51227666 -28.55078125 20.13671875 C-28.46376953 21.33748047 -28.46376953 21.33748047 -28.375 22.5625 C-28.27638672 23.77486328 -28.27638672 23.77486328 -28.17578125 25.01171875 C-28.13839844 25.62660156 -28.10101563 26.24148437 -28.0625 26.875 C-19.07435485 26.55815965 -19.07435485 26.55815965 -11.0625 22.875 C-9.89825671 20.32699557 -9.89825671 20.32699557 -9.0625 17.875 C-9.89394531 17.69324219 -10.72539062 17.51148437 -11.58203125 17.32421875 C-12.66871094 17.07285156 -13.75539063 16.82148437 -14.875 16.5625 C-15.95394531 16.31886719 -17.03289063 16.07523438 -18.14453125 15.82421875 C-21.03738513 14.8831699 -22.29316635 14.3003111 -24.0625 11.875 C-24.625 9 -24.625 9 -24.0625 5.875 C-17.61177629 -0.88290103 -8.89938142 -3.26916052 0 0 Z " fill="#FFBB91" transform="translate(40.0625,41.125)"/>
<path d="M0 0 C4 0 4 0 6.25 2 C6.8275 2.66 7.405 3.32 8 4 C8.721875 3.484375 9.44375 2.96875 10.1875 2.4375 C13 1 13 1 15.75 1.1875 C18 2 18 2 19 4 C19.66 3.34 20.32 2.68 21 2 C22.32 2 23.64 2 25 2 C24.32902328 6.19360449 22.1441606 9.40334352 20 13 C26.17252553 7.68570186 26.17252553 7.68570186 32 2 C32.66 2.33 33.32 2.66 34 3 C33.4946875 3.43570313 32.989375 3.87140625 32.46875 4.3203125 C28.1553516 8.10705432 28.1553516 8.10705432 26.5625 13.4375 C26.706875 14.283125 26.85125 15.12875 27 16 C25.68 16 24.36 16 23 16 C22.505 16.495 22.505 16.495 22 17 C19.0625 17.1875 19.0625 17.1875 16 17 C15.34 16.34 14.68 15.68 14 15 C13.01 15.66 12.02 16.32 11 17 C23.54 17.33 36.08 17.66 49 18 C49 19.98 49 21.96 49 24 C25.24 24 1.48 24 -23 24 C-23 23.67 -23 23.34 -23 23 C0.1 23 23.2 23 47 23 C47 21.68 47 20.36 47 19 C23.9 19 0.8 19 -23 19 C-19.03379202 17.01689601 -17.60857712 16.75948322 -13.359375 16.8046875 C-12.28945313 16.81113281 -11.21953125 16.81757812 -10.1171875 16.82421875 C-9.00601563 16.84097656 -7.89484375 16.85773438 -6.75 16.875 C-5.62335937 16.88402344 -4.49671875 16.89304687 -3.3359375 16.90234375 C-0.55707635 16.92589342 2.2213539 16.9587832 5 17 C4.34 16.67 3.68 16.34 3 16 C2.375 13.9375 2.375 13.9375 2 12 C1.4225 12.680625 0.845 13.36125 0.25 14.0625 C-0.4925 14.701875 -1.235 15.34125 -2 16 C-4.25 15.75 -4.25 15.75 -6 15 C-6 13.35 -6 11.7 -6 10 C-5.34 10.33 -4.68 10.66 -4 11 C-4.33 11.66 -4.66 12.32 -5 13 C-4.21625 12.21625 -3.4325 11.4325 -2.625 10.625 C-0.75 8.75 1.125 6.875 3 5 C3 3.68 3 2.36 3 1 C2.01 0.67 1.02 0.34 0 0 Z M10 7 C7.41222792 10.05580974 7.41222792 10.05580974 7 14 C10.67420866 13.69381595 11.78135513 13.24228216 14.3125 10.4375 C14.869375 9.633125 15.42625 8.82875 16 8 C13.03 7.505 13.03 7.505 10 7 Z " fill="#FFC8A6" transform="translate(45,52)"/>
<path d="M0 0 C23.1 0 46.2 0 70 0 C70 1.32 70 2.64 70 4 C46.9 4 23.8 4 0 4 C0 2.68 0 1.36 0 0 Z " fill="#FF7B29" transform="translate(22,71)"/>
<path d="M0 0 C-0.57352893 3.87132028 -2.48704352 6.08172796 -5 9 C-3.70684939 8.04367001 -2.41553147 7.08486149 -1.125 6.125 C-0.40570313 5.59132813 0.31359375 5.05765625 1.0546875 4.5078125 C3.08252632 3.00126838 3.08252632 3.00126838 5 1 C6.32 1 7.64 1 9 1 C8.07387815 5.29089388 6.03240671 8.75776774 3.8125 12.5 C3.25079102 13.49580078 3.25079102 13.49580078 2.67773438 14.51171875 C0.08748491 18.88849779 -2.38470641 21.57023892 -7 24 C-9.875 23.75 -9.875 23.75 -12 23 C-12.33 21.35 -12.66 19.7 -13 18 C-10.69 18.33 -8.38 18.66 -6 19 C-4.68 16.69 -3.36 14.38 -2 12 C-2.721875 12.53625 -3.44375 13.0725 -4.1875 13.625 C-7 15 -7 15 -9.625 14.3125 C-12 13 -12 13 -15 11 C-14.2575 10.46375 -13.515 9.9275 -12.75 9.375 C-9.82225302 6.84649125 -8.08443526 4.2344685 -6 1 C-4 0 -4 0 0 0 Z " fill="#FFC9A8" transform="translate(109,54)"/>
<path d="M0 0 C0.33 0.66 0.66 1.32 1 2 C2.65 1.67 4.3 1.34 6 1 C6.495 2.485 6.495 2.485 7 4 C6.34 4.33 5.68 4.66 5 5 C17.54 5.33 30.08 5.66 43 6 C43 7.98 43 9.96 43 12 C19.24 12 -4.52 12 -29 12 C-29 11.67 -29 11.34 -29 11 C-5.9 11 17.2 11 41 11 C41 9.68 41 8.36 41 7 C17.9 7 -5.2 7 -29 7 C-25.03379202 5.01689601 -23.60857712 4.75948322 -19.359375 4.8046875 C-18.28945313 4.81113281 -17.21953125 4.81757812 -16.1171875 4.82421875 C-15.00601563 4.84097656 -13.89484375 4.85773438 -12.75 4.875 C-11.62335937 4.88402344 -10.49671875 4.89304687 -9.3359375 4.90234375 C-6.55707635 4.92589342 -3.7786461 4.9587832 -1 5 C-0.67 3.35 -0.34 1.7 0 0 Z " fill="#FFCAAB" transform="translate(51,64)"/>
<path d="M0 0 C2.4152891 6.52128058 1.92641822 12.18957416 1 19 C-1.31 19 -3.62 19 -6 19 C-6.33 17.35 -6.66 15.7 -7 14 C-6.01 13.34 -5.02 12.68 -4 12 C-4.495 11.649375 -4.99 11.29875 -5.5 10.9375 C-7.81346701 7.94927177 -7.4568702 5.65496159 -7 2 C-4.37226805 -0.89956629 -3.79438356 -1.26479452 0 0 Z " fill="#FFD6BD" transform="translate(10,57)"/>
<path d="M0 0 C2.67479327 0.26095544 4.60095141 0.8004757 7 2 C6.43697042 5.94120709 5.3208055 8.7508723 3 12 C2.34 12 1.68 12 1 12 C0.67 12.99 0.34 13.98 0 15 C0 14.01 0 13.02 0 12 C-0.66 11.67 -1.32 11.34 -2 11 C-1.34 10.34 -0.68 9.68 0 9 C0.6425235 6.93125966 0.6425235 6.93125966 1 5 C0.51789063 5.433125 0.03578125 5.86625 -0.4609375 6.3125 C-1.09257813 6.869375 -1.72421875 7.42625 -2.375 8 C-3.00148438 8.556875 -3.62796875 9.11375 -4.2734375 9.6875 C-6 11 -6 11 -8 11 C-8 12.32 -8 13.64 -8 15 C-7.01 15 -6.02 15 -5 15 C-5 15.66 -5 16.32 -5 17 C-6.32 17 -7.64 17 -9 17 C-9.9375 13.9375 -9.9375 13.9375 -10 10 C-8.01377125 7.25284982 -5.57410132 5.18474145 -3 3 C-2.48050781 2.4328125 -1.96101563 1.865625 -1.42578125 1.28125 C-0.95527344 0.8584375 -0.48476562 0.435625 0 0 Z " fill="#FFBD93" transform="translate(81,52)"/>
<path d="M0 0 C1 2 1 2 0.43359375 4.1015625 C-2.07443609 10.45523809 -4.97004764 17.51642471 -11.015625 21.2421875 C-13.64215292 22.24523163 -15.33784598 21.73948723 -18 21 C-18.33 19.35 -18.66 17.7 -19 16 C-16.69 16.33 -14.38 16.66 -12 17 C-11.1028125 15.515 -11.1028125 15.515 -10.1875 14 C-9.1046875 12.515 -9.1046875 12.515 -8 11 C-7.01 11 -6.02 11 -5 11 C-4.9175 9.9275 -4.835 8.855 -4.75 7.75 C-3.94523098 3.7261549 -3.12270126 2.51830747 0 0 Z " fill="#FFC39E" transform="translate(115,56)"/>
<path d="M0 0 C4 0 4 0 6.0625 2 C6.701875 2.66 7.34125 3.32 8 4 C8.99 4 9.98 4 11 4 C9 6 7 8 5 10 C4.95919217 11.99958364 4.95745644 14.00045254 5 16 C4.34 16 3.68 16 3 16 C2.67 14.68 2.34 13.36 2 12 C1.13375 13.0209375 1.13375 13.0209375 0.25 14.0625 C-0.86375 15.0215625 -0.86375 15.0215625 -2 16 C-4.25 15.75 -4.25 15.75 -6 15 C-6 13.35 -6 11.7 -6 10 C-5.01 10.495 -5.01 10.495 -4 11 C-4.33 11.66 -4.66 12.32 -5 13 C-3.824375 11.824375 -3.824375 11.824375 -2.625 10.625 C-0.75 8.75 1.125 6.875 3 5 C3 3.68 3 2.36 3 1 C2.01 0.67 1.02 0.34 0 0 Z " fill="#FFCAA9" transform="translate(45,52)"/>
<path d="M0 0 C0.625 2.375 0.625 2.375 1 5 C0.34 5.66 -0.32 6.32 -1 7 C-1 6.34 -1 5.68 -1 5 C-2.1446875 5.7115625 -2.1446875 5.7115625 -3.3125 6.4375 C-6 8 -6 8 -9 9 C-9 10.65 -9 12.3 -9 14 C-8.34 14.33 -7.68 14.66 -7 15 C-8.32 14.67 -9.64 14.34 -11 14 C-10.88417341 9.16687214 -10.67321143 5.91631555 -7.75 1.9375 C-4.78523986 -0.15130828 -3.53307049 -0.50472436 0 0 Z " fill="#FFA76F" transform="translate(48,53)"/>
<path d="M0 0 C0 1.66666667 0 3.33333333 0 5 C4.31392226 4.5206753 6.16569547 3.2542015 9 0 C8.814375 0.7425 8.62875 1.485 8.4375 2.25 C8.00796892 4.94990963 8.14877026 6.44631077 9 9 C7.68 9 6.36 9 5 9 C4.13375 9.20625 3.2675 9.4125 2.375 9.625 C1.199375 9.810625 1.199375 9.810625 0 10 C-0.66 9.34 -1.32 8.68 -2 8 C-2.99 8.33 -3.98 8.66 -5 9 C-5.99 8.67 -6.98 8.34 -8 8 C-7.67 6.68 -7.34 5.36 -7 4 C-6.67 4.66 -6.34 5.32 -6 6 C-4.02 4.02 -2.04 2.04 0 0 Z " fill="#FFCBAC" transform="translate(81,59)"/>
<path d="M0 0 C4.16045249 0.47277869 6.98632991 0.98632991 10 4 C11.05345217 6.54584274 10.98628927 8.34276834 10.875 11.125 C10.936875 12.548125 10.936875 12.548125 11 14 C11.99 14.66 12.98 15.32 14 16 C11.625 15.75 11.625 15.75 9 15 C6.33818918 11.7044247 6.84359226 8.06660119 7 4 C5.18585949 5.81414051 5.3649546 8.54959054 5 11 C4.01 11 3.02 11 2 11 C2.66 9.35 3.32 7.7 4 6 C1.36 5.34 -1.28 4.68 -4 4 C-4 3.67 -4 3.34 -4 3 C-2.02 2.67 -0.04 2.34 2 2 C1.34 1.34 0.68 0.68 0 0 Z " fill="#FFBC92" transform="translate(27,53)"/>
<path d="M0 0 C-0.59663089 5.17080107 -4.43514249 8.73119661 -8.3125 11.875 C-9.1478125 12.431875 -9.1478125 12.431875 -10 13 C-10.8125 10.9375 -10.8125 10.9375 -11 8 C-8.24287638 2.76146512 -6.13771289 0 0 0 Z " fill="#FF934F" transform="translate(109,54)"/>
<path d="M0 0 C0.78375 0.04125 1.5675 0.0825 2.375 0.125 C2.375 1.775 2.375 3.425 2.375 5.125 C1.446875 5.0425 0.51875 4.96 -0.4375 4.875 C-3.66158971 4.7948292 -3.66158971 4.7948292 -5.5 6.875 C-6.9231424 9.30202205 -6.9231424 9.30202205 -6.625 13.125 C-7.615 12.795 -8.605 12.465 -9.625 12.125 C-9.9375 9.9375 -9.9375 9.9375 -9.625 7.125 C-7.25 4.4375 -7.25 4.4375 -4.625 2.125 C-2.625 0.125 -2.625 0.125 0 0 Z " fill="#FF9A59" transform="translate(58.625,54.875)"/>
<path d="M0 0 C0.99 0.33 1.98 0.66 3 1 C3.73046875 2.7421875 3.73046875 2.7421875 4.1875 4.875 C4.34605469 5.57367188 4.50460938 6.27234375 4.66796875 6.9921875 C5 9 5 9 5 12 C2.5625 11.625 2.5625 11.625 0 11 C-1.35439668 8.29120665 -1.06501451 5.99066732 -1 3 C-1.66 2.67 -2.32 2.34 -3 2 C-2.01 1.34 -1.02 0.68 0 0 Z " fill="#FFC39D" transform="translate(7,56)"/>
<path d="M0 0 C0.825 0.165 1.65 0.33 2.5 0.5 C1.778125 1.056875 1.05625 1.61375 0.3125 2.1875 C-2.57086423 4.4729976 -2.57086423 4.4729976 -5.1875 7.25 C-7.5 9.5 -7.5 9.5 -9.5 9.5 C-9.5 10.82 -9.5 12.14 -9.5 13.5 C-8.51 13.5 -7.52 13.5 -6.5 13.5 C-6.5 14.16 -6.5 14.82 -6.5 15.5 C-7.82 15.5 -9.14 15.5 -10.5 15.5 C-11.5 12.5 -11.5 12.5 -11.5 8.5 C-8.51464148 4.04134766 -5.39615119 0.77087874 0 0 Z " fill="#FF9D5E" transform="translate(82.5,53.5)"/>
<path d="M0 0 C0.33 1.32 0.66 2.64 1 4 C2.0725 4.0825 3.145 4.165 4.25 4.25 C8.2738451 5.05476902 9.48169253 5.87729874 12 9 C10.20866022 9.05391993 8.41686101 9.09275571 6.625 9.125 C5.62726562 9.14820313 4.62953125 9.17140625 3.6015625 9.1953125 C1 9 1 9 -1 7 C-1.1875 3.9375 -1.1875 3.9375 -1 1 C-0.67 0.67 -0.34 0.34 0 0 Z " fill="#FFAE7B" transform="translate(18,47)"/>
<path d="M0 0 C1.32 0.33 2.64 0.66 4 1 C4.4871134 7.33247423 4.4871134 7.33247423 2.3125 10.3125 C-1.74311013 13.27199929 -4.98391703 14.28663331 -10 14 C-7 12 -7 12 -4 11 C-3.67 10.34 -3.34 9.68 -3 9 C-2.01 8.67 -1.02 8.34 0 8 C1.01540112 3.89776415 1.01540112 3.89776415 0 0 Z " fill="#FF8F48" transform="translate(31,56)"/>
<path d="M0 0 C1 2 1 2 0.328125 4.2421875 C-0.02765625 5.11101563 -0.3834375 5.97984375 -0.75 6.875 C-1.26820312 8.17050781 -1.26820312 8.17050781 -1.796875 9.4921875 C-2.96872009 11.93479968 -4.3000799 13.89952401 -6 16 C-6.99 15.67 -7.98 15.34 -9 15 C-8.67 13.68 -8.34 12.36 -8 11 C-7.01 11 -6.02 11 -5 11 C-4.9175 9.9275 -4.835 8.855 -4.75 7.75 C-3.94523098 3.7261549 -3.12270126 2.51830747 0 0 Z " fill="#FFBC92" transform="translate(115,56)"/>
<path d="M0 0 C1.32 0 2.64 0 4 0 C3.40699172 3.32377481 2.31086896 5.12925548 0.0625 7.625 C-0.72447266 8.51058594 -0.72447266 8.51058594 -1.52734375 9.4140625 C-2.65957406 10.63338745 -3.82341622 11.82341622 -5 13 C-5.73283757 8.30983957 -3.80587549 5.45055136 -1.484375 1.57421875 C-0.99453125 1.05472656 -0.5046875 0.53523438 0 0 Z " fill="#FFA369" transform="translate(66,54)"/>
<path d="M0 0 C3.875 0.875 3.875 0.875 5 2 C5.25 4.9375 5.25 4.9375 5 8 C1.77208445 10.1519437 0.71599191 10.20086443 -3 10 C-3 9.01 -3 8.02 -3 7 C-1.68 7 -0.36 7 1 7 C1.69159401 5.15274948 1.69159401 5.15274948 2 3 C1.34 2.01 0.68 1.02 0 0 Z " fill="#FFCDAE" transform="translate(37,41)"/>
<path d="M0 0 C0.99 0 1.98 0 3 0 C3.66 2.64 4.32 5.28 5 8 C6.32 8.33 7.64 8.66 9 9 C9 9.66 9 10.32 9 11 C2.25 9.25 2.25 9.25 0 7 C-0.125 3.375 -0.125 3.375 0 0 Z " fill="#FFAA75" transform="translate(3,59)"/>
<path d="M0 0 C1.2065625 0.0309375 1.2065625 0.0309375 2.4375 0.0625 C2.4375 2.0425 2.4375 4.0225 2.4375 6.0625 C0.7875 6.0625 -0.8625 6.0625 -2.5625 6.0625 C-2.94468767 4.40635343 -3.27645102 2.73792976 -3.5625 1.0625 C-2.5625 0.0625 -2.5625 0.0625 0 0 Z " fill="#FFC39E" transform="translate(114.5625,69.9375)"/>
<path d="M0 0 C4 0 4 0 6.0625 2 C6.701875 2.66 7.34125 3.32 8 4 C8.99 4 9.98 4 11 4 C8.6875 6.5 8.6875 6.5 6 9 C5.01 9 4.02 9 3 9 C3 6.36 3 3.72 3 1 C2.01 0.67 1.02 0.34 0 0 Z " fill="#FFDAC4" transform="translate(45,52)"/>
<path d="M0 0 C2.625 0.375 2.625 0.375 5 1 C5.6875 2.6875 5.6875 2.6875 6 5 C4.32707177 8.69805188 2.81287042 10.55373881 -1 12 C-0.34 11.0925 0.32 10.185 1 9.25 C3.34939828 6.06824185 3.34939828 6.06824185 3 2 C1.35 2 -0.3 2 -2 2 C-1.34 1.34 -0.68 0.68 0 0 Z " fill="#FFDBC6" transform="translate(58,53)"/>
<path d="M0 0 C0.99 0.33 1.98 0.66 3 1 C2.6875 2.875 2.6875 2.875 2 5 C1.01 5.66 0.02 6.32 -1 7 C-1.66 6.67 -2.32 6.34 -3 6 C-2.625 3.5625 -2.625 3.5625 -2 1 C-1.34 0.67 -0.68 0.34 0 0 Z " fill="#FFB485" transform="translate(100,45)"/>
<path d="M0 0 C1.2065625 0.0309375 1.2065625 0.0309375 2.4375 0.0625 C2.4375 1.7125 2.4375 3.3625 2.4375 5.0625 C-0.5325 4.5675 -0.5325 4.5675 -3.5625 4.0625 C-3.5625 0.08689024 -3.5625 0.08689024 0 0 Z " fill="#FFA469" transform="translate(58.5625,54.9375)"/>
<path d="M0 0 C0.33 0.66 0.66 1.32 1 2 C0.67 2.99 0.34 3.98 0 5 C1.65 4.67 3.3 4.34 5 4 C4.67 4.99 4.34 5.98 4 7 C2.02 7.33 0.04 7.66 -2 8 C-2.33 7.01 -2.66 6.02 -3 5 C-1.5625 2.3125 -1.5625 2.3125 0 0 Z " fill="#FFB486" transform="translate(92,61)"/>
<path d="M0 0 C-0.375 1.9375 -0.375 1.9375 -1 4 C-1.99 4.495 -1.99 4.495 -3 5 C-3 4.34 -3 3.68 -3 3 C-4.98 4.32 -6.96 5.64 -9 7 C-6.79922603 2.09058114 -5.62803596 0 0 0 Z " fill="#FFC8A5" transform="translate(109,54)"/>
<path d="M0 0 C0.33 1.32 0.66 2.64 1 4 C1.66 4 2.32 4 3 4 C3 4.66 3 5.32 3 6 C4.65 6.33 6.3 6.66 8 7 C8 7.33 8 7.66 8 8 C2.375 8.25 2.375 8.25 -1 6 C-1.25 3.4375 -1.25 3.4375 -1 1 C-0.67 0.67 -0.34 0.34 0 0 Z " fill="#FF7D2A" transform="translate(18,47)"/>
<path d="M0 0 C0.625 2.375 0.625 2.375 1 5 C0.34 5.66 -0.32 6.32 -1 7 C-1.33 6.34 -1.66 5.68 -2 5 C-4.01669827 3.86649466 -4.01669827 3.86649466 -6 3 C-3.375 0 -3.375 0 0 0 Z " fill="#FF8130" transform="translate(48,53)"/>
<path d="M0 0 C1.65 0.33 3.3 0.66 5 1 C5 1.99 5 2.98 5 4 C1.25 5.125 1.25 5.125 -1 4 C-0.67 2.68 -0.34 1.36 0 0 Z " fill="#FFC9A8" transform="translate(69,49)"/>
<path d="M0 0 C0.99 0.495 0.99 0.495 2 1 C1.67 1.66 1.34 2.32 1 3 C2.65 2.34 4.3 1.68 6 1 C5.6875 2.9375 5.6875 2.9375 5 5 C4.01 5.33 3.02 5.66 2 6 C1.34 5.67 0.68 5.34 0 5 C0 3.35 0 1.7 0 0 Z " fill="#FFC19B" transform="translate(39,62)"/>
<path d="M0 0 C1.61707167 2.62774147 2.00051044 3.97447793 1.9375 7.125 C1.958125 8.07375 1.97875 9.0225 2 10 C2.99 10.66 3.98 11.32 5 12 C0.46205357 11.52232143 0.46205357 11.52232143 -1.4375 9.375 C-2.26431609 5.88399872 -1.15145984 3.32643954 0 0 Z " fill="#FFE1CF" transform="translate(36,57)"/>
<path d="M0 0 C0.33 0.66 0.66 1.32 1 2 C0.00390625 4.1640625 0.00390625 4.1640625 -1.4375 6.625 C-1.91058594 7.44226562 -2.38367188 8.25953125 -2.87109375 9.1015625 C-3.24363281 9.72804688 -3.61617188 10.35453125 -4 11 C-5.1640625 7.328125 -5.1640625 7.328125 -3.6875 4.375 C-2 2 -2 2 0 0 Z " fill="#FF8232" transform="translate(115,56)"/>
<path d="M0 0 C1.65 0 3.3 0 5 0 C5 1.32 5 2.64 5 4 C3.35 4 1.7 4 0 4 C0 2.68 0 1.36 0 0 Z " fill="#FF7F2E" transform="translate(5,71)"/>
<path d="M0 0 C0.66 0 1.32 0 2 0 C2 1.65 2 3.3 2 5 C1.34 5 0.68 5 0 5 C-0.33 5.99 -0.66 6.98 -1 8 C-1 7.01 -1 6.02 -1 5 C-1.66 4.67 -2.32 4.34 -3 4 C-1.625 2 -1.625 2 0 0 Z " fill="#FF893D" transform="translate(82,59)"/>
<path d="M0 0 C0.66 0 1.32 0 2 0 C1.40072174 3.35595828 0.15377564 5.37801226 -2 8 C-3 5 -3 5 -1.6875 2.3125 C-1.130625 1.549375 -0.57375 0.78625 0 0 Z " fill="#FF8637" transform="translate(91,58)"/>
</svg>
