<?xml version="1.0" encoding="UTF-8"?>
<svg version="1.1" xmlns="http://www.w3.org/2000/svg" width="120" height="120">
<path d="M0 0 C2.93000033 2.75242456 3.03184687 3.62585989 3.4375 7.75 C3.39321828 11.2356041 3.11874016 11.86358436 0.875 14.8125 C-4.50892272 18.88035272 -8.3704646 19.16011137 -14.9375 18.9375 C-14.9375 17.9475 -14.9375 16.9575 -14.9375 15.9375 C-14.29941406 15.82792969 -13.66132812 15.71835937 -13.00390625 15.60546875 C-12.17761719 15.44691406 -11.35132812 15.28835937 -10.5 15.125 C-9.67628906 14.97417969 -8.85257812 14.82335937 -8.00390625 14.66796875 C-7.32199219 14.42691406 -6.64007813 14.18585937 -5.9375 13.9375 C-4.66367782 10.11603346 -4.96416173 7.83085307 -5.9375 3.9375 C-10.24109701 0.27648329 -14.62290267 0.43266035 -20 0.5 C-21.26710815 0.51244751 -21.26710815 0.51244751 -22.55981445 0.52514648 C-32.54682905 0.7930559 -41.15234055 2.94836116 -48.5 10.06640625 C-50.745963 12.98982005 -51.14698269 15.30646672 -50.9375 18.9375 C-46.94891398 24.05329512 -39.53164854 24.61978139 -33.5234375 25.875 C-32.738479 26.0407251 -31.95352051 26.2064502 -31.14477539 26.37719727 C-29.58130602 26.70219615 -28.01539532 27.015722 -26.44702148 27.31616211 C-20.7995596 28.47889295 -15.04167625 29.99049072 -11.5234375 34.91796875 C-10.01005643 40.13408885 -10.35949818 44.59653577 -12.5 49.5625 C-19.49147703 60.08625636 -29.82224272 65.23772122 -41.9375 67.9375 C-46.59193035 68.71485789 -51.25386325 69.36385573 -55.9375 69.9375 C-55.9375 70.9275 -55.9375 71.9175 -55.9375 72.9375 C-59.4025 73.4325 -59.4025 73.4325 -62.9375 73.9375 C-62.9375 73.2775 -62.9375 72.6175 -62.9375 71.9375 C-63.535625 71.793125 -64.13375 71.64875 -64.75 71.5 C-66.49900404 71.0502561 -68.22427023 70.50857659 -69.9375 69.9375 C-69.9375 69.2775 -69.9375 68.6175 -69.9375 67.9375 C-71.0925 67.875625 -72.2475 67.81375 -73.4375 67.75 C-79.2150524 66.99329402 -83.81861115 64.59281641 -87.48046875 60.00390625 C-88.75480224 58.02700767 -89.86392012 56.0288336 -90.9375 53.9375 C-91.4325 53.133125 -91.9275 52.32875 -92.4375 51.5 C-93.26310683 47.26876502 -91.73351022 43.76564927 -89.9375 39.9375 C-87.73918636 36.90534325 -86.48786806 36.12095602 -82.9375 34.9375 C-79.9375 34.9375 -79.9375 34.9375 -77.84375 36.38671875 C-75.1552742 39.98420788 -74.94350058 43.36347383 -74.4375 47.75 C-73.69187745 54.11929684 -72.46395528 58.52496926 -68.9375 63.9375 C-52.56681457 64.52508193 -39.02440004 64.03619792 -25.9375 52.9375 C-22.13137035 49.22420278 -21.03649563 46.28326387 -20.9375 40.9375 C-23.33200662 37.28224937 -27.37712289 36.73509532 -31.375 35.75 C-32.37756836 35.48413086 -32.37756836 35.48413086 -33.40039062 35.21289062 C-36.72181237 34.36031557 -39.4823591 33.9375 -42.9375 33.9375 C-42.9375 33.2775 -42.9375 32.6175 -42.9375 31.9375 C-43.9275 32.06125 -44.9175 32.185 -45.9375 32.3125 C-51.0162453 32.34353103 -54.38393576 29.29500552 -57.9375 25.9375 C-60.03490836 22.79138747 -60.19078219 22.02561922 -60.125 18.4375 C-60.11855469 17.6640625 -60.11210938 16.890625 -60.10546875 16.09375 C-59.79240226 12.07484999 -58.52618295 10.23786663 -55.625 7.625 C-41.42860987 -4.34450541 -16.37965109 -11.50060608 0 0 Z M-83.9375 39.9375 C-85.62977401 41.62977401 -85.22959734 43.68191422 -85.3125 46 C-85.27878111 51.16573422 -84.16512984 54.31711774 -81.32421875 58.57421875 C-79.9050487 60.28802742 -79.9050487 60.28802742 -76.9375 59.9375 C-77.370625 59.050625 -77.80375 58.16375 -78.25 57.25 C-80.64521223 51.72960609 -81.69441741 45.80026541 -82.9375 39.9375 C-83.2675 39.9375 -83.5975 39.9375 -83.9375 39.9375 Z " fill="#FF904A" transform="translate(108.9375,22.0625)"/>
<path d="M0 0 C3.38593888 5.39242119 3.67087707 11.25409027 4.27734375 17.5 C5.14888427 21.72108271 6.70954531 24.37228995 9 28 C24.13154962 28.41798868 24.13154962 28.41798868 39 26 C38.34 26.99 37.68 27.98 37 29 C37.99 29.66 38.98 30.32 40 31 C34.06 31.99 28.12 32.98 22 34 C22 34.99 22 35.98 22 37 C18.535 37.495 18.535 37.495 15 38 C15 37.34 15 36.68 15 36 C14.401875 35.855625 13.80375 35.71125 13.1875 35.5625 C11.43849596 35.1127561 9.71322977 34.57107659 8 34 C8 33.34 8 32.68 8 32 C6.845 31.938125 5.69 31.87625 4.5 31.8125 C-1.2775524 31.05579402 -5.88111115 28.65531641 -9.54296875 24.06640625 C-10.81730224 22.08950767 -11.92642012 20.0913336 -13 18 C-13.495 17.195625 -13.99 16.39125 -14.5 15.5625 C-15.32361715 11.3414621 -13.81073146 7.81394225 -12 4 C-8.623989 -0.22001375 -5.26812647 -2.10725059 0 0 Z M-6 4 C-7.69227401 5.69227401 -7.29209734 7.74441422 -7.375 10.0625 C-7.34128111 15.22823422 -6.22762984 18.37961774 -3.38671875 22.63671875 C-1.9675487 24.35052742 -1.9675487 24.35052742 1 24 C0.566875 23.113125 0.13375 22.22625 -0.3125 21.3125 C-2.70771223 15.79210609 -3.75691741 9.86276541 -5 4 C-5.33 4 -5.66 4 -6 4 Z " fill="#FFAE7A" transform="translate(31,58)"/>
<path d="M0 0 C2.93000033 2.75242456 3.03184687 3.62585989 3.4375 7.75 C3.39321828 11.2356041 3.11874016 11.86358436 0.875 14.8125 C-4.50892272 18.88035272 -8.3704646 19.16011137 -14.9375 18.9375 C-14.9375 17.9475 -14.9375 16.9575 -14.9375 15.9375 C-14.29941406 15.82792969 -13.66132812 15.71835937 -13.00390625 15.60546875 C-12.17761719 15.44691406 -11.35132812 15.28835937 -10.5 15.125 C-9.67628906 14.97417969 -8.85257813 14.82335937 -8.00390625 14.66796875 C-7.32199219 14.42691406 -6.64007813 14.18585937 -5.9375 13.9375 C-4.66367782 10.11603346 -4.96416173 7.83085307 -5.9375 3.9375 C-10.17753416 0.39174044 -14.4724203 0.4048326 -19.75 0.25 C-20.53826172 0.21583984 -21.32652344 0.18167969 -22.13867188 0.14648438 C-24.07113119 0.06450125 -26.00429035 -0.00068845 -27.9375 -0.0625 C-23.17775287 -2.85035189 -18.35522565 -2.6755196 -12.9375 -3.0625 C-19.2075 -3.0625 -25.4775 -3.0625 -31.9375 -3.0625 C-31.9375 -3.3925 -31.9375 -3.7225 -31.9375 -4.0625 C-21.20842051 -6.64581234 -9.17764389 -6.44387763 0 0 Z " fill="#FF934F" transform="translate(108.9375,22.0625)"/>
<path d="M0 0 C0 0.99 0 1.98 0 3 C-1.32 2.67 -2.64 2.34 -4 2 C-3.72285156 3.16917969 -3.44570313 4.33835937 -3.16015625 5.54296875 C-2.79422599 7.09113523 -2.42834307 8.63931291 -2.0625 10.1875 C-1.88009766 10.95642578 -1.69769531 11.72535156 -1.50976562 12.51757812 C-0.60879887 16.33440092 0.26637997 20.14656426 1 24 C-1 23 -1 23 -1.68603516 21.23413086 C-1.88503418 20.48526611 -2.0840332 19.73640137 -2.2890625 18.96484375 C-2.61777344 17.75151367 -2.61777344 17.75151367 -2.953125 16.51367188 C-3.17484375 15.66353516 -3.3965625 14.81339844 -3.625 13.9375 C-3.85445312 13.08349609 -4.08390625 12.22949219 -4.3203125 11.34960938 C-4.88739162 9.23487683 -5.44692622 7.11843061 -6 5 C-6.80149006 12.80710684 -5.79323683 17.52135875 -1.3125 24.00390625 C0 26 0 26 0 28 C-2.625 28.5 -2.625 28.5 -6 28 C-8.5018753 25.64211753 -10.22920005 22.93062214 -12 20 C-12.37898438 19.41476563 -12.75796875 18.82953125 -13.1484375 18.2265625 C-14.55009864 15.67482042 -15.08889797 13.58080005 -14.6484375 10.703125 C-13.32531127 6.25393131 -11.80534239 2.85400679 -8 0 C-4.71023192 -1.09658936 -3.28696233 -0.79953138 0 0 Z " fill="#FF9E61" transform="translate(31,58)"/>
<path d="M0 0 C0.99 0.66 1.98 1.32 3 2 C3 2.66 3 3.32 3 4 C2.01 4.495 2.01 4.495 1 5 C2.24873901 5.029729 2.24873901 5.029729 3.52270508 5.06005859 C6.614765 5.13820742 9.70643383 5.22490206 12.7980957 5.31738281 C14.7929536 5.37444092 16.7880854 5.42164442 18.78320312 5.46875 C20.03681641 5.50742188 21.29042969 5.54609375 22.58203125 5.5859375 C23.73936768 5.6173584 24.8967041 5.6487793 26.08911133 5.68115234 C29 6 29 6 32 8 C28.37 8.66 24.74 9.32 21 10 C21 10.99 21 11.98 21 13 C18.69 13.33 16.38 13.66 14 14 C14 13.34 14 12.68 14 12 C13.401875 11.855625 12.80375 11.71125 12.1875 11.5625 C10.43849596 11.1127561 8.71322977 10.57107659 7 10 C7 9.34 7 8.68 7 8 C5.7625 7.896875 4.525 7.79375 3.25 7.6875 C-0.2792866 7.26198318 -2.37160966 6.51887408 -5 4 C-3.68 4 -2.36 4 -1 4 C-1.33 3.01 -1.66 2.02 -2 1 C-1.34 0.67 -0.68 0.34 0 0 Z " fill="#FF9C5E" transform="translate(32,82)"/>
<path d="M0 0 C0 0.99 0 1.98 0 3 C-1.32 2.67 -2.64 2.34 -4 2 C-3.72285156 3.16917969 -3.44570313 4.33835937 -3.16015625 5.54296875 C-2.79422599 7.09113523 -2.42834307 8.63931291 -2.0625 10.1875 C-1.88009766 10.95642578 -1.69769531 11.72535156 -1.50976562 12.51757812 C-0.60879887 16.33440092 0.26637997 20.14656426 1 24 C0.34 23.67 -0.32 23.34 -1 23 C-1.80572848 20.37109028 -2.49780749 17.7963755 -3.125 15.125 C-3.30675781 14.39152344 -3.48851562 13.65804687 -3.67578125 12.90234375 C-4.41039382 9.86999561 -5 7.13078675 -5 4 C-5.99 4 -6.98 4 -8 4 C-8.33 6.97 -8.66 9.94 -9 13 C-9.66 12.01 -10.32 11.02 -11 10 C-11.19294408 14.82360189 -10.75747614 18.49646738 -9 23 C-12.21701043 20.39575346 -14.24529 17.05364853 -15 13 C-14.22659868 7.72842549 -12.34183198 3.25637398 -8 0 C-4.71023192 -1.09658936 -3.28696233 -0.79953138 0 0 Z " fill="#FFA76F" transform="translate(31,58)"/>
<path d="M0 0 C-1.98 0.99 -1.98 0.99 -4 2 C-4 2.66 -4 3.32 -4 4 C-4.86286621 3.76228882 -4.86286621 3.76228882 -5.74316406 3.51977539 C-7.90939777 3.02086674 -9.89322683 2.80111676 -12.109375 2.68359375 C-12.86347656 2.64169922 -13.61757812 2.59980469 -14.39453125 2.55664062 C-15.56048828 2.49766602 -15.56048828 2.49766602 -16.75 2.4375 C-17.54277344 2.39431641 -18.33554688 2.35113281 -19.15234375 2.30664062 C-21.10137815 2.20097009 -23.05066748 2.10002034 -25 2 C-20.24025287 -0.78785189 -15.41772565 -0.6130196 -10 -1 C-16.27 -1 -22.54 -1 -29 -1 C-29 -1.33 -29 -1.66 -29 -2 C-19.67511696 -4.24521456 -8.64150227 -4.32075113 0 0 Z " fill="#FFB181" transform="translate(106,20)"/>
<path d="M0 0 C2.475 0.495 2.475 0.495 5 1 C6.00926479 5.15626368 6.10239579 9.04365094 6.0625 13.3125 C6.05347656 14.56675781 6.04445313 15.82101563 6.03515625 17.11328125 C6.01775391 18.54220703 6.01775391 18.54220703 6 20 C5.34 20 4.68 20 4 20 C3.32749476 17.41806023 2.66182099 14.83467929 2 12.25 C1.71382812 11.15558594 1.71382812 11.15558594 1.421875 10.0390625 C0.53484036 6.55428354 0 3.61876278 0 0 Z " fill="#FF8232" transform="translate(27,60)"/>
<path d="M0 0 C3.875 1.75 3.875 1.75 5 4 C5.13415472 6.6723621 5.04318541 9.32250488 5 12 C5.99 11.67 6.98 11.34 8 11 C8 11.66 8 12.32 8 13 C2.4174808 16.32575612 -1.49686791 17.46450943 -8 17 C-8 16.01 -8 15.02 -8 14 C-7.36191406 13.89042969 -6.72382812 13.78085937 -6.06640625 13.66796875 C-5.24011719 13.50941406 -4.41382812 13.35085937 -3.5625 13.1875 C-2.73878906 13.03667969 -1.91507812 12.88585938 -1.06640625 12.73046875 C-0.38449219 12.48941406 0.29742187 12.24835937 1 12 C2.24079227 8.27762318 1.6953965 5.82468076 1 2 C0.67 1.34 0.34 0.68 0 0 Z " fill="#FFB689" transform="translate(102,24)"/>
<path d="M0 0 C-0.66 0.66 -1.32 1.32 -2 2 C-1.01 2.66 -0.02 3.32 1 4 C-5.625 5.125 -5.625 5.125 -9 4 C-10.69867188 3.85222064 -12.40177489 3.75252934 -14.10546875 3.68359375 C-15.08837891 3.64169922 -16.07128906 3.59980469 -17.08398438 3.55664062 C-18.10814453 3.51732422 -19.13230469 3.47800781 -20.1875 3.4375 C-21.22326172 3.39431641 -22.25902344 3.35113281 -23.32617188 3.30664062 C-25.8839819 3.20055634 -28.44188845 3.09849854 -31 3 C-31 2.01 -31 1.02 -31 0 C-30.67 0.33 -30.34 0.66 -30 1 C-26.82057657 1.25341687 -23.62581126 1.18524039 -20.4375 1.1875 C-19.55513672 1.19974609 -18.67277344 1.21199219 -17.76367188 1.22460938 C-13.48061675 1.23410617 -9.62142937 1.04055893 -5.47265625 -0.07421875 C-2 -1 -2 -1 0 0 Z " fill="#FFB98D" transform="translate(70,85)"/>
<path d="M0 0 C0 0.99 0 1.98 0 3 C-0.33 2.67 -0.66 2.34 -1 2 C-4.3724945 1.62527839 -6.37981532 1.65726636 -9.375 3.3125 C-11.99577345 7.64685608 -11.49834173 12.06641689 -11 17 C-10.14284151 20.50829714 -10.14284151 20.50829714 -9 23 C-12.21701043 20.39575346 -14.24529 17.05364853 -15 13 C-14.22659868 7.72842549 -12.34183198 3.25637398 -8 0 C-4.71023192 -1.09658936 -3.28696233 -0.79953138 0 0 Z " fill="#FFDECA" transform="translate(31,58)"/>
<path d="M0 0 C0.33 0.66 0.66 1.32 1 2 C-1.49927769 2.33970765 -3.99919595 2.67188032 -6.5 3 C-7.19609375 3.09539063 -7.8921875 3.19078125 -8.609375 3.2890625 C-13.44700129 3.9161622 -18.12181196 4.08789528 -23 4 C-22.67 3.34 -22.34 2.68 -22 2 C-14.82366132 -0.14495732 -7.42495142 -0.25850895 0 0 Z " fill="#FF7C29" transform="translate(96,18)"/>
<path d="M0 0 C5.19209404 -0.21192221 9.126739 0.4087311 14 2 C14 2.99 14 3.98 14 5 C11.69 5.33 9.38 5.66 7 6 C7 5.34 7 4.68 7 4 C6.1028125 3.7834375 6.1028125 3.7834375 5.1875 3.5625 C3.43849596 3.1127561 1.71322977 2.57107659 0 2 C0 1.34 0 0.68 0 0 Z " fill="#FFB281" transform="translate(39,90)"/>
<path d="M0 0 C0 0.33 0 0.66 0 1 C-4.62459244 2.17700048 -9.07866462 2.11408412 -13.8125 2.0625 C-14.99489258 2.05573242 -14.99489258 2.05573242 -16.20117188 2.04882812 C-18.13414761 2.03711312 -20.06708393 2.01917998 -22 2 C-22.33 1.34 -22.66 0.68 -23 0 C-15.15597666 -0.72526532 -7.80255144 -1.21074074 0 0 Z " fill="#FF9049" transform="translate(64,89)"/>
<path d="M0 0 C0.66 0 1.32 0 2 0 C3.69242399 2.95502601 4.27328801 5.09995022 4.25 8.5 C4.25515625 9.2528125 4.2603125 10.005625 4.265625 10.78125 C3.97250404 13.2296721 3.21816769 14.87304054 2 17 C0.78247416 13.34742249 0.97042604 10.28797078 1.0625 6.47265625 C1.00360788 4.14273671 0.66092839 2.22546982 0 0 Z " fill="#FFBE96" transform="translate(94,55)"/>
<path d="M0 0 C0.99 0.66 1.98 1.32 3 2 C3 2.66 3 3.32 3 4 C2.01 4.495 2.01 4.495 1 5 C1.66 5.66 2.32 6.32 3 7 C-2.75 6.25 -2.75 6.25 -5 4 C-3.68 4 -2.36 4 -1 4 C-1.33 3.01 -1.66 2.02 -2 1 C-1.34 0.67 -0.68 0.34 0 0 Z " fill="#FFBD93" transform="translate(32,82)"/>
<path d="M0 0 C0.66 0 1.32 0 2 0 C2.04898437 0.58007812 2.09796875 1.16015625 2.1484375 1.7578125 C2.59649405 6.43923092 3.298021 10.57485459 5 15 C1.66159501 12.29748168 0.37823313 8.99687609 -1 5 C-0.6875 2.0625 -0.6875 2.0625 0 0 Z " fill="#FFD4B9" transform="translate(17,66)"/>
<path d="M0 0 C0.33 0 0.66 0 1 0 C1.33 3.96 1.66 7.92 2 12 C1.34 12 0.68 12 0 12 C-1.1671568 8.49852959 -1.13357453 5.67329964 -1 2 C-0.67 1.34 -0.34 0.68 0 0 Z " fill="#FF7822" transform="translate(31,68)"/>
</svg>
